# Blender v3.0.1 OBJ File: 'NewCubo.blend'
# www.blender.org
mtllib NewCubo.mtl
o Cube
v 0.050000 0.050000 -0.050000
v 0.050000 0.050000 0.050000
v 0.050000 -0.050000 -0.050000
v 0.050000 -0.050000 0.050000
v -0.050000 0.050000 -0.050000
v -0.050000 0.050000 0.050000
v -0.050000 -0.050000 -0.050000
v -0.050000 -0.050000 0.050000
v 0.050000 0.050000 0.050000
vt 0.742943 0.347506
vt 0.742943 0.658689
vt 0.509442 0.658689
vt 0.509442 0.347506
vt 0.990426 0.352206
vt 0.990426 0.647794
vt 0.768626 0.647794
vt 0.768626 0.352206
vt 0.229509 0.365816
vt 0.229509 0.646573
vt 0.018838 0.646573
vt 0.018838 0.365816
vt 0.487957 0.349707
vt 0.487957 0.650293
vt 0.262409 0.650293
vt 0.262409 0.349707
vt 0.262435 0.018324
vt 0.487931 0.018324
vt 0.487931 0.318839
vt 0.262435 0.318839
vt 0.478615 0.981650
vt 0.262454 0.981650
vt 0.262454 0.693576
vt 0.478615 0.693576
vn 1.0000 0.0000 0.0000
vn 0.0000 -1.0000 0.0000
vn -1.0000 0.0000 0.0000
vn 0.0000 1.0000 0.0000
vn 0.0000 0.0000 -1.0000
vn 0.0000 0.0000 1.0000
usemtl Material
s off
f 1/1/1 2/2/1 4/3/1 3/4/1
f 3/5/2 4/6/2 8/7/2 7/8/2
f 7/9/3 8/10/3 6/11/3 5/12/3
f 5/13/4 6/14/4 9/15/4 1/16/4
f 3/17/5 7/18/5 5/19/5 1/20/5
f 8/21/6 4/22/6 9/23/6 6/24/6
